<?xml version="1.0" encoding="UTF-8"?>
<svg width="111px" height="36px" viewBox="0 0 111 36" version="1.1" xmlns="http://www.w3.org/2000/svg" xmlns:xlink="http://www.w3.org/1999/xlink">
    <!-- Generator: Sketch 44.1 (41455) - http://www.bohemiancoding.com/sketch -->
    <title>logo 1</title>
    <desc>Created with Sketch.</desc>
    <defs>
        <polygon id="path-1" points="31.2683554 0.320465455 0 0.320465455 0 35.6072727 31.2683554 35.6072727"></polygon>
    </defs>
    <g id="业务场景_UI" stroke="none" stroke-width="1" fill="none" fill-rule="evenodd">
        <g id="网络概览_云应用视图_异常事件" transform="translate(-45.000000, -13.000000)">
            <g id="logo-1" transform="translate(45.000000, 13.000000)">
                <g id="盾">
                    <g id="Group-3">
                        <mask id="mask-2" fill="white">
                            <use xlink:href="#path-1"></use>
                        </mask>
                        <g id="Clip-2"></g>
                        <path d="M27.7451099,6.28527709 L27.7451099,6.38171345 C27.7421241,7.05825164 27.7346596,7.76446255 27.7242093,8.48402618 C27.6943513,10.6174953 27.6376211,12.6011171 27.5570045,14.3829644 C27.4181647,17.4214516 27.2151302,19.7166371 26.9523797,21.206208 C26.8120471,21.9969862 26.1417347,23.0741062 25.010116,24.3218444 C24.0322661,25.400448 22.7214994,26.5932916 21.1136454,27.8662516 C19.8058645,28.9018298 18.3443148,29.9611462 16.7678118,31.0115607 C16.4095156,31.2504262 16.0571911,31.4803898 15.7183026,31.6970007 C15.3585136,31.4833571 14.9852884,31.2578444 14.6090775,31.0249135 C12.9668868,30.0086225 11.4426353,28.9774953 10.0781241,27.9582371 C8.08360892,26.4686662 6.53696389,25.0844335 5.48297606,23.8411462 C4.62306531,22.8278225 4.1080146,21.9228044 3.99455416,21.222528 C3.74673266,19.7151535 3.5944568,17.4941498 3.54220527,14.6188625 C3.50189696,12.4364335 3.51981176,10.0003025 3.5944568,7.37426618 C3.6064,6.99593891 3.6168503,6.63689891 3.62879351,6.306048 C3.68104503,6.28379345 3.73478945,6.26153891 3.79002677,6.23928436 C4.74996187,5.85353891 5.75766978,5.49301527 6.7847854,5.17106618 C10.0437874,4.15032436 13.0534751,3.63105164 15.7302458,3.63105164 C18.4070166,3.63105164 21.4077469,4.15032436 24.6518199,5.17106618 C25.6759497,5.49301527 26.677686,5.85205527 27.6301566,6.23928436 C27.668972,6.25412073 27.7077874,6.26895709 27.7451099,6.28527709 M31.2683554,5.22002618 L31.2638767,4.20373527 L30.2994629,3.74677527 C30.2322824,3.71561891 30.1128503,3.66072436 29.9471383,3.58802618 C29.6649801,3.46340073 29.3529639,3.33135709 29.0230329,3.19782982 C27.9809882,2.77499345 26.8866921,2.38182982 25.7700024,2.030208 C22.1646475,0.895226182 18.7877063,0.319575273 15.7302458,0.319575273 C12.6742783,0.319575273 9.29136552,0.895226182 5.67108154,2.030208 C4.54991318,2.38182982 3.45113834,2.77350982 2.40312211,3.19634618 C2.07319108,3.32987345 1.76117485,3.46043345 1.47453793,3.58654255 C1.30733306,3.65775709 1.18790101,3.71413527 1.12072049,3.74529164 L0.193629209,4.18148073 L0.142870588,5.30904436 C0.138391886,5.43070255 0.132420284,5.57461527 0.126448682,5.734848 C0.108533874,6.19477527 0.0906190669,6.71553164 0.0741971602,7.285248 C-0.00194077079,9.95876073 -0.0198555781,12.4438516 0.0219456389,14.6767244 C0.0771829615,17.6988916 0.242894929,20.0712262 0.51460284,21.728448 C0.728087627,23.034048 1.45363732,24.4019607 2.73156024,25.9078516 C3.94976714,27.3440116 5.68601055,28.9062807 7.88953185,30.5516335 C9.33465963,31.6317207 10.9440065,32.7207098 12.6727854,33.7904116 C13.2147083,34.1257135 13.744688,34.4432116 14.2477955,34.7384553 C14.4164933,34.8348916 14.5657834,34.9224262 14.6956657,34.996608 C14.7747895,35.0411171 14.8315197,35.0722735 14.8628706,35.0900771 L15.7974264,35.6078662 L16.7080957,35.0574371 C16.7379538,35.0381498 16.7931911,35.0055098 16.8678361,34.9580335 C16.9917469,34.882368 17.1365582,34.7933498 17.2962986,34.6909789 C17.7829842,34.3838662 18.2905704,34.0559825 18.8041282,33.7117789 C20.459755,32.6079535 22.0004284,31.4937425 23.3813615,30.4003025 C25.1370126,29.0086516 26.5866191,27.6882153 27.6898726,26.4701498 C29.2798118,24.7179753 30.1740592,23.1720262 30.4248665,21.7462516 C30.7115034,20.1276044 30.9294669,17.697408 31.0742783,14.5253935 C31.1578807,12.7109062 31.214611,10.6946444 31.2459619,8.53001891 C31.2564122,7.81787345 31.2623838,7.10127709 31.2653696,6.39803345 C31.2683554,5.94552436 31.2683554,5.57461527 31.2683554,5.22002618" id="Fill-1" fill="#20A0FF" mask="url(#mask-2)"></path>
                    </g>
                    <path d="M20.4328828,19.0863971 L10.6782702,19.0863971 C9.11520325,19.0715607 7.84325193,17.8030516 7.84325193,16.2541353 C7.84325193,14.7230225 9.10176714,13.4515462 10.6499051,13.4248407 L10.8604041,13.4203898 L10.951471,13.231968 C11.6367124,11.828448 13.0937834,10.9219462 14.6673006,10.9219462 C16.3169558,10.9219462 17.8053777,11.8922444 18.4562824,13.3936844 L18.6085582,13.7438225 L18.9414751,13.5539171 C19.3938239,13.297248 19.9088746,13.1622371 20.4328828,13.1622371 C22.0825379,13.1622371 23.4246556,14.4900916 23.4246556,16.1235753 C23.4246556,17.7570589 22.0825379,19.0863971 20.4328828,19.0863971 M20.4328828,10.6029644 C20.1955116,10.6029644 19.9581404,10.6178007 19.7222621,10.6489571 C18.4503108,9.19499345 16.6110572,8.36267345 14.6673006,8.36267345 C12.5518604,8.36267345 10.5439091,9.36709527 9.28539391,11.0510225 C6.91765355,11.6830516 5.26949128,13.8150371 5.26949128,16.2541353 C5.26949128,19.2006371 7.69396187,21.6189644 10.6752844,21.6441862 L20.4328828,21.6441862 C23.5022864,21.6441862 25.9999091,19.1679971 25.9999091,16.1235753 C25.9999091,13.0791535 23.5022864,10.6029644 20.4328828,10.6029644" id="Fill-4" fill="#20A0FF"></path>
                </g>
                <g id="文字" transform="translate(39.000000, 5.000000)" fill="#FFFFFF">
                    <path d="M0.792052012,8.94311848 L6.72562477,8.94311848 C5.57548235,11.1691147 1.69781053,17.6804061 1.69781053,17.6804061 L16.1984916,17.6804061 L13.7580706,12.8327185 L12.1960644,13.5870651 L13.3650056,15.9410309 L4.71586625,15.9410309 L8.73880124,8.94311848 L17.4956062,8.94311848 L17.4956062,7.1801699 L0.792052012,7.1801699 L0.792052012,8.94311848 Z" id="Fill-6"></path>
                    <polygon id="Fill-8" points="2.86350464 3.78577829 15.5560867 3.78577829 15.5560867 2.02282971 2.86350464 2.02282971"></polygon>
                    <path d="M30.5407505,12.0229745 L27.2065337,12.0229745 L27.2065337,11.5397211 L27.2065337,9.74141257 L30.5407505,9.74141257 L30.5407505,12.0229745 Z M32.2924533,9.74141257 L35.154992,9.74141257 L35.154992,8.31185829 L32.5334192,8.31185829 L33.2443542,6.917664 L31.5387938,6.25929448 L30.4843542,8.31185829 L25.4753387,8.31185829 L27.0937412,7.91111162 L26.2170353,6.25929448 L24.6174316,6.74254781 C24.6174316,6.74254781 25.1933573,7.84881067 25.4189424,8.31185829 L22.8195864,8.31185829 L22.8195864,9.74141257 L25.5129362,9.74141257 C25.5129362,9.74141257 25.5129362,11.8545935 25.4941375,12.0229745 L22.3684161,12.0229745 L22.3684161,13.4878888 L25.3881808,13.4878888 L24.3593759,17.0440945 L25.844478,17.8371688 L27.0373449,13.4878888 L30.5407505,13.4878888 L30.5407505,17.6805745 L32.2924533,17.6805745 L32.2924533,13.4878888 L35.700156,13.4878888 L35.700156,12.0229745 L32.2924533,12.0229745 L32.2924533,9.74141257 Z" id="Fill-10"></path>
                    <path d="M22.1424892,4.56369829 L32.9329783,4.56369829 L32.9329783,2.98596876 L22.1424892,2.98596876 L22.1424892,4.56369829 Z M34.7957647,1.50253257 L20.3719876,1.50253257 L20.3719876,8.66545829 C20.3583158,12.4792869 18.8048545,16.614723 18.8048545,16.614723 L20.1720372,17.6805745 C20.1720372,17.6805745 22.0228607,12.4540297 22.1424892,8.66545829 L22.1424892,6.02861257 L34.7957647,6.02861257 L34.7957647,1.50253257 Z" id="Fill-11"></path>
                    <polygon id="Fill-12" points="39.4987022 4.32240838 51.3060334 4.32240838 51.3060334 6.60397029 53.1705288 6.60397029 53.1705288 2.70763505 46.5226031 2.70763505 45.4493647 0.436176 43.6412656 1.0204579 44.4325226 2.70763505 37.7282006 2.70763505 37.7282006 6.60397029 39.4987022 6.60397029"></polygon>
                    <path d="M48.2630266,9.44287314 L45.711522,12.6909417 L42.3055282,11.4095627 L43.5667542,9.44287314 L48.2630266,9.44287314 Z M45.713231,5.30575314 L43.7923393,4.91679314 L42.397813,7.8095779 L37.2965127,7.8095779 L37.2965127,9.44287314 L41.4202774,9.44287314 C40.7982093,10.4632617 39.6771195,12.1706446 39.6771195,12.1706446 L44.1050824,13.8780274 L38.5936272,16.2218903 L38.8551009,17.8013036 L45.9900854,14.748557 L53.1763393,17.4763284 L53.3404012,15.8480846 L47.4939864,13.3964579 L50.5479307,9.44287314 L53.6223827,9.44287314 L53.6223827,7.8095779 L44.5084012,7.8095779 L45.713231,5.30575314 Z" id="Fill-13"></path>
                    <path d="M58.5844012,7.32497752 L63.6224693,2.9352861 L68.776748,7.32497752 L58.5844012,7.32497752 Z M64.5008842,12.969107 L69.2655158,12.969107 L69.2655158,11.4654651 L64.5008842,11.4654651 L64.5008842,8.88755276 L69.3407108,8.88755276 L69.3407108,8.858928 L69.3407108,7.80654705 L71.0753238,9.283248 L71.9229771,7.95472229 L64.7999554,1.90816229 L65.3741721,1.40807086 L64.282135,0.19404419 L55.5219121,7.9564061 L56.2704446,9.34049752 L57.9093548,7.91262705 L57.9093548,8.88755276 L62.6551876,8.88755276 L62.6551876,11.4654651 L58.0990514,11.4654651 L58.0990514,12.969107 L62.6551876,12.969107 L62.6551876,15.9713394 L55.6688842,15.9713394 L55.6688842,17.5120251 L71.5999802,17.5120251 L71.5999802,15.9713394 L64.5008842,15.9713394 L64.5008842,12.969107 Z" id="Fill-14"></path>
                    <path d="M4.68322477,21.5469379 C5.02502043,21.7894065 5.23180681,22.2053074 5.30187492,22.792957 L4.50890898,22.792957 C4.46105759,22.5235474 4.34997399,22.2962331 4.17907616,22.1177493 C4.00646935,21.9375817 3.72961486,21.8483398 3.35022167,21.8483398 C2.83069226,21.8483398 2.45984396,22.0773379 2.2359678,22.5387017 C2.09070464,22.836736 2.01721858,23.2038065 2.01721858,23.6432808 C2.01721858,24.0861227 2.12146625,24.4565608 2.32654365,24.7579627 C2.53162105,25.0593646 2.85461796,25.2109074 3.29553437,25.2109074 C3.63391207,25.2109074 3.90051269,25.1166141 4.09875418,24.9297112 C4.29528669,24.7411246 4.43371393,24.4851855 4.50890898,24.1602103 L5.30187492,24.1602103 C5.21129907,24.7444922 4.98400495,25.1721798 4.62170155,25.4415893 C4.25939814,25.7126827 3.79626502,25.8490712 3.23230217,25.8490712 C2.59827121,25.8490712 2.09241362,25.6369112 1.71472941,25.2159589 C1.3370452,24.7950065 1.14905759,24.2679741 1.14905759,23.6382293 C1.14905759,22.863677 1.35584396,22.262557 1.76941672,21.8315017 C2.18298947,21.4004465 2.7093548,21.1849189 3.35022167,21.1849189 C3.89709474,21.1849189 4.3414291,21.3044693 4.68322477,21.5469379" id="Fill-15"></path>
                    <polygon id="Fill-16" points="8.22456966 25.720765 9.03975232 25.720765 9.03975232 19.6758888 8.22456966 19.6758888"></polygon>
                    <path d="M15.3551108,24.6810126 C15.5550613,24.3105745 15.654182,23.8963573 15.654182,23.4434126 C15.654182,23.032563 15.582405,22.6958011 15.4371418,22.4398621 C15.2115567,22.034064 14.8219096,21.8320069 14.2647827,21.8320069 C13.7725969,21.8320069 13.4154204,22.0037554 13.1898353,22.3489364 C12.9676681,22.6941173 12.8548755,23.1100183 12.8548755,23.598323 C12.8548755,24.0681059 12.9676681,24.4570659 13.1898353,24.7702545 C13.4154204,25.0817592 13.7691789,25.2383535 14.2562378,25.2383535 C14.791148,25.2383535 15.1568693,25.0531345 15.3551108,24.6810126 M15.8609684,21.7528678 C16.289922,22.1300411 16.5052533,22.6856983 16.5052533,23.421523 C16.5052533,24.1320907 16.3155567,24.7180564 15.9378724,25.1827878 C15.5601882,25.6441516 14.9740087,25.8765173 14.1810427,25.8765173 C13.5179591,25.8765173 12.9915938,25.6710926 12.6019467,25.2619269 C12.2122997,24.8527611 12.0174762,24.3004716 12.0174762,23.6101097 C12.0174762,22.8709173 12.2225536,22.281584 12.6344173,21.8421097 C13.0445721,21.4043192 13.5965721,21.185424 14.2869994,21.185424 C14.9090675,21.185424 15.4320149,21.3740107 15.8609684,21.7528678" id="Fill-17"></path>
                    <path d="M20.4070217,21.3133935 L20.4070217,24.2381707 C20.4070217,24.4638011 20.4446192,24.6456526 20.5215232,24.7887764 C20.6616594,25.0531345 20.9265511,25.1861554 21.3110712,25.1861554 C21.8630712,25.1861554 22.2407554,24.9537897 22.4389969,24.4941097 C22.5483715,24.2465897 22.6030588,23.908144 22.6030588,23.4770888 L22.6030588,21.3133935 L23.4182415,21.3133935 L23.4182415,25.719923 L22.6492012,25.719923 L22.6577461,25.0682888 C22.5534985,25.2366697 22.4253251,25.3781097 22.271517,25.4926088 C21.9656099,25.7232907 21.5947616,25.8394735 21.1589721,25.8394735 C20.4805077,25.8394735 20.0190836,25.6289973 19.7729907,25.2097288 C19.6396904,24.9857821 19.5747492,24.6843802 19.5747492,24.3072069 L19.5747492,21.3133935 L20.4070217,21.3133935 Z" id="Fill-18"></path>
                    <path d="M27.6800916,24.7534164 C27.8988409,25.0699726 28.2508904,25.2299345 28.7345313,25.2299345 C29.1087975,25.2299345 29.4181226,25.0817592 29.6607975,24.7887764 C29.9017635,24.4941097 30.0231009,24.0697897 30.0231009,23.519184 C30.0231009,22.961843 29.8983455,22.5493097 29.6488347,22.281584 C29.3993238,22.0138583 29.0917077,21.8808373 28.7242774,21.8808373 C28.3175406,21.8808373 27.9859988,22.0239611 27.731361,22.308525 C27.4784322,22.5947726 27.3502588,23.0140411 27.3502588,23.5680145 C27.3502588,24.0394811 27.4613424,24.4351764 27.6800916,24.7534164 M29.4984446,21.4480983 C29.6437077,21.530605 29.8077697,21.6754126 29.9906303,21.8808373 L29.9906303,19.6548411 L30.7750514,19.6548411 L30.7750514,25.719923 L30.0401907,25.719923 L30.0401907,25.1070164 C29.8522031,25.3781097 29.626618,25.5751154 29.3685622,25.6963497 C29.1087975,25.8159002 28.8131443,25.8765173 28.4798935,25.8765173 C27.9415653,25.8765173 27.4750142,25.6694088 27.0819492,25.2568754 C26.6871752,24.8443421 26.4906427,24.2954202 26.4906427,23.6084259 C26.4906427,22.9668945 26.6717944,22.4095535 27.0306799,21.9397707 C27.3895653,21.4699878 27.9022588,21.2342545 28.5704693,21.2342545 C28.9396087,21.2342545 29.2489337,21.3049745 29.4984446,21.4480983" id="Fill-19"></path>
                    <path d="M34.562831,24.337347 C34.5884656,24.5831832 34.6568248,24.7734537 34.7713263,24.9047909 C34.9815307,25.1438918 35.3438341,25.2634423 35.8616545,25.2634423 C36.1692706,25.2634423 36.4409981,25.204509 36.6751282,25.0832747 C36.9092582,24.965408 37.0254687,24.7818728 37.0254687,24.5309851 C37.0254687,24.3407147 36.9331839,24.1975909 36.7451963,24.0982461 C36.6255678,24.037629 36.3897288,23.966909 36.0359703,23.8877699 L35.3797226,23.7412785 C34.9593139,23.6469851 34.6482799,23.542589 34.4500384,23.4280899 C34.0928619,23.2277166 33.9151282,22.9515718 33.9151282,22.596288 C33.9151282,22.180387 34.082608,21.8436251 34.4192768,21.5843185 C34.7525276,21.3266956 35.2036978,21.1987261 35.7693697,21.1987261 C36.5093573,21.1987261 37.0425585,21.3923642 37.3706824,21.7813242 C37.5757598,22.0288442 37.6748805,22.2948861 37.6680446,22.5811337 L36.8990043,22.5811337 C36.8836235,22.4127528 36.8169734,22.2628937 36.6990539,22.1265051 C36.5093573,21.9311832 36.1761065,21.8368899 35.7027195,21.8368899 C35.3882675,21.8368899 35.1490105,21.889088 34.9883666,21.995168 C34.8243046,22.1029318 34.7439827,22.242688 34.7439827,22.4178042 C34.7439827,22.6097585 34.8499393,22.7613013 35.0635616,22.8774842 C35.186608,22.9448366 35.3677598,23.0054537 35.6087257,23.0576518 L36.1573077,23.1772023 C36.7537412,23.3068556 37.1536421,23.4314575 37.3570105,23.551008 C37.6731715,23.7412785 37.8321065,24.037629 37.8321065,24.443427 C37.8321065,24.8374385 37.6663356,25.1758842 37.3347938,25.460448 C37.003252,25.7466956 36.4991034,25.8898194 35.81893,25.8898194 C35.0891963,25.8898194 34.5713759,25.7399604 34.2688867,25.4419261 C33.9629796,25.1438918 33.8006266,24.7768213 33.7801189,24.337347 L34.562831,24.337347 Z" id="Fill-20"></path>
                    <path d="M44.0047653,21.5469379 C44.346561,21.7894065 44.5533474,22.2053074 44.6234155,22.792957 L43.8304495,22.792957 C43.7808892,22.5235474 43.6715146,22.2962331 43.5006167,22.1177493 C43.3280099,21.9375817 43.0511554,21.8483398 42.6717622,21.8483398 C42.1522328,21.8483398 41.7813845,22.0773379 41.5557994,22.5387017 C41.4122452,22.836736 41.3387591,23.2038065 41.3387591,23.6432808 C41.3387591,24.0861227 41.4412978,24.4565608 41.6480842,24.7579627 C41.8531616,25.0593646 42.1761585,25.2109074 42.6170749,25.2109074 C42.9537437,25.2109074 43.2220533,25.1166141 43.4202947,24.9297112 C43.6168272,24.7411246 43.7552545,24.4851855 43.8304495,24.1602103 L44.6234155,24.1602103 C44.5311307,24.7444922 44.3055455,25.1721798 43.9432421,25.4415893 C43.5809387,25.7126827 43.1178056,25.8490712 42.5538427,25.8490712 C41.9198118,25.8490712 41.4139542,25.6369112 41.03627,25.2159589 C40.6585858,24.7950065 40.4705981,24.2679741 40.4705981,23.6382293 C40.4705981,22.863677 40.6773845,22.262557 41.0909573,21.8315017 C41.50453,21.4004465 42.0308954,21.1849189 42.6717622,21.1849189 C43.2186353,21.1849189 43.6612607,21.3044693 44.0047653,21.5469379" id="Fill-21"></path>
                    <path d="M47.5462811,21.3133935 L48.3204483,21.3133935 L48.3204483,22.0744754 C48.3836805,21.9263002 48.5391975,21.7461326 48.7869994,21.5339726 C49.0348012,21.3201288 49.3202006,21.2140488 49.6431975,21.2140488 C49.6568693,21.2140488 49.682504,21.2140488 49.7183926,21.2174164 C49.7559901,21.220784 49.8175133,21.2258354 49.9046712,21.2342545 L49.9046712,22.0172259 C49.8568198,22.0088069 49.8123864,22.0020716 49.7713709,22.0003878 C49.7303554,21.9970202 49.685922,21.9953364 49.6380706,21.9953364 C49.2279158,21.9953364 48.9117548,22.1165707 48.6912966,22.3556716 C48.4725474,22.5964564 48.3614638,22.8726011 48.3614638,23.1841059 L48.3614638,25.719923 L47.5462811,25.719923 L47.5462811,21.3133935 Z" id="Fill-22"></path>
                    <path d="M55.9843616,23.1649105 C55.951891,22.8433029 55.874987,22.5873638 55.7553585,22.3954095 C55.5331913,22.0384419 55.164052,21.8616419 54.6462316,21.8616419 C54.2753833,21.8616419 53.9643492,21.9828762 53.7131294,22.2287124 C53.4602006,22.4745486 53.3269003,22.7843695 53.3132285,23.1649105 L55.9843616,23.1649105 Z M55.6921263,21.4356381 C56.0134142,21.5821295 56.2577981,21.7707162 56.425278,22.0047657 C56.5893399,22.2253448 56.6970056,22.4863352 56.7499839,22.7810019 C56.7978353,22.9847429 56.821761,23.3080343 56.821761,23.7542438 L53.2944297,23.7542438 C53.3098105,24.2004533 53.4243121,24.5607886 53.6413523,24.8318819 C53.8566836,25.1029752 54.1899344,25.23768 54.6428136,25.23768 C55.0649313,25.23768 55.4016,25.1097105 55.6528198,24.8537714 C55.794665,24.7055962 55.8937858,24.5321638 55.951891,24.3368419 L56.7534019,24.3368419 C56.7328941,24.4984876 56.662826,24.6786552 56.5431975,24.8790286 C56.423569,25.0777181 56.2902687,25.2393638 56.1450056,25.3673333 C55.8989127,25.5845448 55.5947146,25.73272 55.2324111,25.8101752 C55.0375876,25.8556381 54.8171294,25.8758438 54.5710365,25.8758438 C53.9711851,25.8758438 53.4636186,25.6771543 53.0466279,25.2780914 C52.6296372,24.8790286 52.4211418,24.3200038 52.4211418,23.6010171 C52.4211418,22.8938171 52.6313461,22.3179543 53.0517548,21.8767962 C53.4704545,21.4356381 54.0207455,21.215059 54.6975009,21.215059 C55.0410056,21.215059 55.3708384,21.2874629 55.6921263,21.4356381 L55.6921263,21.4356381 Z" id="Fill-23"></path>
                    <path d="M63.228208,23.1649105 C63.1957375,22.8433029 63.1188334,22.5873638 62.999205,22.3954095 C62.7770378,22.0384419 62.4078985,21.8616419 61.890078,21.8616419 C61.5192297,21.8616419 61.2081957,21.9828762 60.9569759,22.2287124 C60.7040471,22.4745486 60.5707467,22.7843695 60.5570749,23.1649105 L63.228208,23.1649105 Z M62.9359728,21.4356381 C63.2572607,21.5821295 63.5016446,21.7707162 63.6691245,22.0047657 C63.8314774,22.2253448 63.940852,22.4863352 63.9938303,22.7810019 C64.0416817,22.9847429 64.0656074,23.3080343 64.0656074,23.7542438 L60.5382762,23.7542438 C60.553657,24.2004533 60.6681585,24.5607886 60.8834898,24.8318819 C61.10053,25.1029752 61.4337808,25.23768 61.8866601,25.23768 C62.3070687,25.23768 62.6454464,25.1097105 62.8966663,24.8537714 C63.0368025,24.7055962 63.1376322,24.5321638 63.1957375,24.3368419 L63.9972483,24.3368419 C63.9767406,24.4984876 63.9066724,24.6786552 63.787044,24.8790286 C63.6674155,25.0777181 63.5341152,25.2393638 63.388852,25.3673333 C63.1427591,25.5845448 62.838561,25.73272 62.4762576,25.8101752 C62.2814341,25.8556381 62.0609759,25.8758438 61.814883,25.8758438 C61.2150316,25.8758438 60.707465,25.6771543 60.2904743,25.2780914 C59.8734836,24.8790286 59.6649882,24.3200038 59.6649882,23.6010171 C59.6649882,22.8938171 59.8751926,22.3179543 60.2956012,21.8767962 C60.7143009,21.4356381 61.264592,21.215059 61.9413474,21.215059 C62.283143,21.215059 62.6146848,21.2874629 62.9359728,21.4356381 L62.9359728,21.4356381 Z" id="Fill-24"></path>
                    <path d="M67.1836384,21.3133935 L67.9578056,21.3133935 L67.9578056,21.9380869 C68.1868087,21.680464 68.4311926,21.495245 68.6875393,21.3824297 C68.9438861,21.2712983 69.2292854,21.2140488 69.5420285,21.2140488 C70.2307467,21.2140488 70.6955889,21.4312602 70.9365548,21.8690507 C71.0698551,22.1081516 71.1365053,22.4482811 71.1365053,22.8928069 L71.1365053,25.719923 L70.3076508,25.719923 L70.3076508,22.9433211 C70.3076508,22.6739116 70.2649263,22.4567002 70.1760594,22.2916869 C70.0325053,22.0172259 69.7693226,21.8808373 69.3899294,21.8808373 C69.1968149,21.8808373 69.0361709,21.8993592 68.9131245,21.9347192 C68.6892483,21.9936526 68.4944248,22.1165707 68.3235269,22.2967383 C68.1885176,22.4415459 68.1013598,22.591405 68.0603443,22.7479992 C68.0193288,22.9012259 67.9988211,23.1234888 67.9988211,23.4114202 L67.9988211,25.719923 L67.1836384,25.719923 L67.1836384,21.3133935 Z" id="Fill-25"></path>
                </g>
            </g>
        </g>
    </g>
</svg>